<svg width="236" height="236" viewBox="0 0 236 236" fill="none" xmlns="http://www.w3.org/2000/svg">
<path d="M42.1289 49.1384C43.6129 48.5819 44.5405 46.9123 43.984 45.4283C43.4274 43.9442 41.7579 43.0166 40.2738 43.5732C38.7897 44.1297 37.8622 45.7993 38.4187 47.2834C38.7897 48.7674 40.4593 49.695 42.1289 49.1384Z" fill="#F1F3FA"/>
<path d="M40.2738 205.894C41.3868 204.781 41.5724 203.112 40.4593 201.999C39.3462 200.885 37.6767 200.7 36.5636 201.813C35.4505 202.926 35.265 204.596 36.3781 205.709C37.4911 206.822 39.1607 207.007 40.2738 205.894Z" fill="#F1F3FA"/>
<path d="M110.396 214.984C158.072 214.984 196.844 176.398 196.844 128.908C196.658 81.2317 158.072 42.6458 110.396 42.6458C62.5349 42.6458 23.9489 81.2317 23.9489 128.722C23.9489 176.398 62.5349 214.984 110.396 214.984Z" fill="#F1F3FA"/>
<path d="M167.767 84.3545V91.0211H167.254H160.758L61.1017 90.6792C59.2214 90.6792 57.341 90.3373 55.4607 89.8245C55.2898 89.8245 55.1189 89.6536 54.9479 89.6536C52.5548 88.7989 50.5036 87.7733 48.7942 86.0639C47.4267 84.6964 46.4011 82.6451 46.4011 80.7648C46.4011 77.1752 49.307 74.4402 53.4095 72.7308C54.777 72.047 56.4864 71.7052 58.1957 71.5342C58.8795 71.5342 59.5632 71.3633 60.247 71.3633H154.775C155.801 71.3633 156.656 71.5342 157.51 71.7052C158.194 71.8761 158.878 72.047 159.562 72.3889C164.519 74.4402 167.767 78.8845 167.767 84.3545Z" fill="url(#paint0_linear_18_4237)"/>
<path opacity="0.1" d="M167.254 91.0211H160.758L61.1018 90.6793C59.2215 90.6793 57.3412 90.3374 55.4609 89.8246C55.2899 89.8246 55.119 89.6536 54.9481 89.6536C52.5549 88.799 50.5037 87.7733 48.7943 86.064C49.9909 84.8674 51.5293 83.8418 53.4096 83.158C54.7771 82.4743 56.4865 82.1324 58.1959 81.9615C58.8796 81.7905 59.5634 81.7905 60.2471 81.7905H154.775C155.801 81.7905 156.656 81.9615 157.51 82.1324C158.194 82.3033 158.878 82.4743 159.562 82.8162C163.322 84.3546 166.057 87.4315 167.254 91.0211Z" fill="#989FB0"/>
<g filter="url(#filter0_d_18_4237)">
<path d="M179.903 101.448V185.379C179.903 191.191 175.288 195.806 169.476 195.806H68.7939C60.418 195.806 53.9224 191.874 49.8199 188.626C47.9396 187.088 46.743 184.695 46.743 182.302C46.743 181.105 46.743 179.909 46.743 178.712C46.743 177.003 46.743 174.951 46.743 172.9C46.743 163.328 46.743 150.507 46.5721 137.516C46.5721 135.636 46.5721 133.756 46.5721 131.704C46.5721 124.867 46.5721 118.029 46.4011 111.534C46.4011 109.653 46.4011 107.773 46.4011 105.722C46.4011 92.9016 46.2302 83.3291 46.2302 81.1069C46.2302 84.8676 49.8199 88.2863 54.6061 89.6538C54.7771 89.6538 54.948 89.8247 55.1189 89.8247C56.8283 90.3375 58.8796 90.6794 60.7599 90.6794L160.416 91.1922H167.596H169.305C175.288 91.0213 179.903 95.6366 179.903 101.448Z" fill="url(#paint1_linear_18_4237)"/>
</g>
<path opacity="0.1" d="M159.733 129.995C156.143 129.995 153.066 131.362 150.844 133.585C148.622 135.807 147.083 139.055 147.083 142.473C147.083 142.644 147.083 142.986 147.083 143.157C147.425 149.824 153.066 155.123 159.733 155.123H179.903V129.995H159.733Z" fill="url(#paint2_linear_18_4237)"/>
<g filter="url(#filter1_d_18_4237)">
<path d="M179.903 125.208V128.285C179.732 128.285 179.561 128.285 179.219 128.285H158.707C155.117 128.285 152.04 129.653 149.818 131.875C147.767 133.926 146.228 137.003 146.057 140.251C146.057 140.422 146.057 140.764 146.057 140.935C146.057 147.943 151.698 153.584 158.707 153.584H179.219C180.245 153.584 181.1 153.242 181.441 152.729C181.612 152.558 181.783 152.217 181.783 152.046V126.747C181.783 125.892 180.929 125.379 179.903 125.208Z" fill="url(#paint3_linear_18_4237)"/>
</g>
<path d="M157.681 148.456C161.784 148.456 165.203 145.037 165.203 140.935C165.203 136.832 161.784 133.414 157.681 133.414C153.579 133.414 150.16 136.832 150.16 140.935C150.16 145.037 153.579 148.456 157.681 148.456Z" fill="#F1F3FA"/>
<path d="M92.0738 147.756C94.8981 147.756 97.288 145.366 97.288 142.542C97.288 139.717 94.8981 137.327 92.0738 137.327C89.2494 137.327 86.8596 139.717 86.8596 142.542C86.8596 145.366 89.2494 147.756 92.0738 147.756Z" fill="#989FB0"/>
<path d="M132.049 147.756C134.874 147.756 137.264 145.366 137.264 142.542C137.264 139.717 134.874 137.327 132.049 137.327C129.225 137.327 126.835 139.717 126.835 142.542C126.835 145.583 129.225 147.756 132.049 147.756Z" fill="#989FB0"/>
<path d="M91.8699 125.291L80.3999 131.484L81.9482 134.352L93.4182 128.158L91.8699 125.291Z" fill="#989FB0"/>
<path d="M131.34 125.209L129.792 128.076L141.264 134.268L142.812 131.4L131.34 125.209Z" fill="#989FB0"/>
<path d="M112.062 159.922C115.421 159.922 118.145 157.88 118.145 155.36C118.145 152.84 115.421 150.797 112.062 150.797C108.702 150.797 105.978 152.84 105.978 155.36C105.978 157.88 108.702 159.922 112.062 159.922Z" fill="#989FB0"/>
<path d="M201.602 28.875C184.636 25.1545 166.48 25.7497 149.811 30.6609C146.389 31.7026 142.668 33.042 139.989 35.4232C135.822 38.8461 134.036 44.9478 135.376 50.1566C136.715 55.3654 141.18 59.6813 146.686 60.723C150.109 61.616 154.276 60.4254 156.36 57.5978C158.294 54.6213 157.848 50.1566 155.467 47.4778C153.086 44.5014 149.216 43.3108 145.644 43.4596C142.073 43.6084 138.501 44.9479 135.376 46.5849C125.256 52.0913 117.07 61.7648 113.648 73.0753C111.912 78.57 111.301 84.3456 111.746 90.0269" stroke="#D5DAE5" stroke-width="2" stroke-miterlimit="10" stroke-dasharray="4 4"/>
<path d="M210.531 25.0055C210.382 27.2378 210.233 29.3213 208.596 29.7678C206.959 30.2142 206.215 28.726 205.173 26.6425C204.131 24.7078 204.727 22.6243 206.513 22.1778C208.15 21.7314 210.829 22.3267 210.531 25.0055Z" fill="#D5DAE5"/>
<path d="M208.745 35.7208C209.191 33.042 209.638 31.5537 208.15 30.8096C206.513 30.0655 205.471 31.4049 203.685 33.1908C202.197 34.8278 203.09 37.209 204.578 37.9531C206.364 38.8461 208.299 37.9531 208.745 35.7208Z" fill="#D5DAE5"/>
<path d="M210.829 30.8098C210.68 31.8515 209.936 32.5956 208.894 32.7445C208.448 32.7445 208.001 32.7445 207.406 32.7445C205.322 32.4468 203.685 31.1074 203.834 29.768C203.983 28.4286 205.918 27.6845 208.299 27.9821C208.745 27.9821 209.192 28.131 209.489 28.2798C210.382 28.5774 210.978 29.6192 210.829 30.8098C210.829 30.8098 210.829 30.6609 210.829 30.8098Z" fill="#989FB0"/>
<path d="M46.9964 53.2061C46.9964 50.6761 46.9964 48.1461 48.7822 47.402C50.7169 46.6579 51.7587 48.4438 53.2469 50.9737C54.5863 53.2061 53.991 55.5872 52.0563 56.3314C50.4193 57.0755 46.9964 56.629 46.9964 53.2061Z" fill="#D5DAE5"/>
<path d="M48.0381 40.705C47.7405 43.8303 47.294 45.6161 49.2287 46.3602C51.1634 47.1044 52.2052 45.4673 54.1399 43.0862C55.6281 41.0026 54.5863 38.3238 52.6516 37.5797C50.7169 36.8356 48.3358 38.175 48.0381 40.705Z" fill="#D5DAE5"/>
<path d="M46.4012 46.6579C46.4012 45.4673 47.2941 44.5744 48.3359 44.4256C48.7823 44.2768 49.3776 44.2768 49.9729 44.4256C52.3541 44.5744 54.4376 45.9138 54.2888 47.402C54.14 48.8903 52.2053 49.932 49.6753 49.6344C49.2288 49.6344 48.7823 49.4855 48.3359 49.3367C47.1453 49.1879 46.4012 47.9973 46.4012 46.6579Z" fill="#989FB0"/>
<path d="M56.5212 47.1042C72.1475 47.1042 101.019 56.1824 101.466 89.5187" stroke="#D5DAE5" stroke-width="2" stroke-miterlimit="10" stroke-dasharray="4 4"/>
<defs>
<filter id="filter0_d_18_4237" x="24.2302" y="70.1069" width="177.673" height="158.699" filterUnits="userSpaceOnUse" color-interpolation-filters="sRGB">
<feFlood flood-opacity="0" result="BackgroundImageFix"/>
<feColorMatrix in="SourceAlpha" type="matrix" values="0 0 0 0 0 0 0 0 0 0 0 0 0 0 0 0 0 0 127 0" result="hardAlpha"/>
<feOffset dy="11"/>
<feGaussianBlur stdDeviation="11"/>
<feColorMatrix type="matrix" values="0 0 0 0 0.397708 0 0 0 0 0.47749 0 0 0 0 0.575 0 0 0 0.27 0"/>
<feBlend mode="normal" in2="BackgroundImageFix" result="effect1_dropShadow_18_4237"/>
<feBlend mode="normal" in="SourceGraphic" in2="effect1_dropShadow_18_4237" result="shape"/>
</filter>
<filter id="filter1_d_18_4237" x="124.057" y="114.208" width="79.7259" height="72.3755" filterUnits="userSpaceOnUse" color-interpolation-filters="sRGB">
<feFlood flood-opacity="0" result="BackgroundImageFix"/>
<feColorMatrix in="SourceAlpha" type="matrix" values="0 0 0 0 0 0 0 0 0 0 0 0 0 0 0 0 0 0 127 0" result="hardAlpha"/>
<feOffset dy="11"/>
<feGaussianBlur stdDeviation="11"/>
<feColorMatrix type="matrix" values="0 0 0 0 0.397708 0 0 0 0 0.47749 0 0 0 0 0.575 0 0 0 0.27 0"/>
<feBlend mode="normal" in2="BackgroundImageFix" result="effect1_dropShadow_18_4237"/>
<feBlend mode="normal" in="SourceGraphic" in2="effect1_dropShadow_18_4237" result="shape"/>
</filter>
<linearGradient id="paint0_linear_18_4237" x1="107.093" y1="72.0462" x2="107.093" y2="83.0799" gradientUnits="userSpaceOnUse">
<stop stop-color="#B0BACC"/>
<stop offset="1" stop-color="#969EAE"/>
</linearGradient>
<linearGradient id="paint1_linear_18_4237" x1="113.023" y1="78.4538" x2="113.023" y2="197.042" gradientUnits="userSpaceOnUse">
<stop stop-color="#FDFEFF"/>
<stop offset="0.9964" stop-color="#ECF0F5"/>
</linearGradient>
<linearGradient id="paint2_linear_18_4237" x1="163.496" y1="130.868" x2="163.496" y2="144.972" gradientUnits="userSpaceOnUse">
<stop stop-color="#B0BACC"/>
<stop offset="1" stop-color="#969EAE"/>
</linearGradient>
<linearGradient id="paint3_linear_18_4237" x1="163.909" y1="124.552" x2="163.909" y2="153.89" gradientUnits="userSpaceOnUse">
<stop stop-color="#FDFEFF"/>
<stop offset="0.9964" stop-color="#ECF0F5"/>
</linearGradient>
</defs>
</svg>
